<svg xmlns="http://www.w3.org/2000/svg" viewBox="0 0 256 256"><defs><style>.cls-1{fill:none;}</style></defs><title>Asset 16</title><g id="Layer_2" data-name="Layer 2"><g id="Layer_1-2" data-name="Layer 1"><rect class="cls-1" width="256" height="256"/><path d="M86.24,235l8.69-7.9a4.27,4.27,0,0,0,1.76-3.17,2.14,2.14,0,0,0-2.42-2.19,2.44,2.44,0,0,0-2.47,2.5H86.32c0-3.8,2.66-7.32,8.06-7.32,5,0,8.18,2.58,8.18,6.69,0,3.17-1.72,5.13-4,7l-3.48,2.86h7.67v4.89H86.24Z"/><path d="M104.48,227.89c0-6.11,4.46-11,11.23-11s11.24,4.89,11.24,11-4.47,11-11.24,11S104.48,234,104.48,227.89Zm16.83,0a5.6,5.6,0,1,0-5.6,5.75A5.45,5.45,0,0,0,121.31,227.89Z"/><path d="M128.63,235l8.68-7.9a4.28,4.28,0,0,0,1.77-3.17,2.14,2.14,0,0,0-2.43-2.19,2.44,2.44,0,0,0-2.47,2.5H128.7c0-3.8,2.67-7.32,8.07-7.32,5,0,8.18,2.58,8.18,6.69,0,3.17-1.73,5.13-4,7l-3.48,2.86h7.67v4.89H128.63Z"/><path d="M146.86,227.89c0-6.11,4.46-11,11.24-11s11.23,4.89,11.23,11-4.46,11-11.23,11S146.86,234,146.86,227.89Zm16.83,0a5.6,5.6,0,1,0-5.59,5.75A5.44,5.44,0,0,0,163.69,227.89Z"/><path d="M128,88.16a57.6,57.6,0,1,0,57.6,57.6A57.6,57.6,0,0,0,128,88.16Zm0,108.76a51.16,51.16,0,1,1,51.16-51.16A51.16,51.16,0,0,1,128,196.92Zm-12.82-47.25a7.05,7.05,0,1,1-7.05-7A7.05,7.05,0,0,1,115.18,149.67Zm39.74,0a7,7,0,1,1-7-7A7.05,7.05,0,0,1,154.92,149.67ZM161.26,135l6.5-7.07H153.35a45,45,0,0,0-50.66,0H88.24l6.5,7.07a19.87,19.87,0,1,0,26.89,29.26l6.37,6.93,6.37-6.92A19.87,19.87,0,1,0,161.26,135Zm-53.13,28.14a13.45,13.45,0,1,1,13.44-13.45A13.45,13.45,0,0,1,108.13,163.12ZM128,149.28c0-8.85-6.44-16.44-14.92-19.69a38.84,38.84,0,0,1,29.84,0C134.44,132.84,128,140.43,128,149.28Zm19.87,13.84a13.45,13.45,0,1,1,13.44-13.45A13.45,13.45,0,0,1,147.87,163.12Z"/><path d="M96,209.45s-7-5.37-19.55-6.85a33.85,33.85,0,0,0-21.75,5.16A82.67,82.67,0,0,0,75.8,212.5C88.57,213.79,96,209.45,96,209.45Z"/><path d="M76.39,198.42s-6.28-6.47-18-10.93a42.88,42.88,0,0,0-23-1.7,63.88,63.88,0,0,0,19.63,11.57C67.49,202.11,76.39,198.42,76.39,198.42Z"/><path d="M57.72,183.09s-3.66-8.94-13.39-17.92a44.08,44.08,0,0,0-21.91-10.54,67.37,67.37,0,0,0,14.77,19.19C47.55,183.39,57.72,183.09,57.72,183.09Z"/><path d="M54.06,165.94s-1.21-9.61-8.25-20.83a43.67,43.67,0,0,0-18.35-15.84,67.84,67.84,0,0,0,9.25,22.43C44.21,163.64,54.06,165.94,54.06,165.94Z"/><path d="M54.52,143s-.33-9.85-6.24-21.83a43.7,43.7,0,0,0-16.59-17.72A70.66,70.66,0,0,0,38.78,127C45.07,139.75,54.52,143,54.52,143Z"/><path d="M82.43,191.9a46,46,0,0,0-10.81-14.73,36,36,0,0,0-17.82-8.76,55.15,55.15,0,0,0,11.92,15.78C74.12,192.07,82.43,191.9,82.43,191.9Z"/><path d="M102.3,202.81A36.63,36.63,0,0,0,90.86,196a28.54,28.54,0,0,0-14.42-1.48,43.93,43.93,0,0,0,12.5,7.24C96.82,204.81,102.3,202.81,102.3,202.81Z"/><path d="M121.6,206.73a27.52,27.52,0,0,0-10.5-1.53,21.61,21.61,0,0,0-11,3.64,32.94,32.94,0,0,0,11.41,1.5C118.25,210.11,121.6,206.73,121.6,206.73Z"/><path d="M73.73,174.18a46.31,46.31,0,0,0-7.55-16.67A35.69,35.69,0,0,0,50.59,145.3,55.59,55.59,0,0,0,59,163.24C65.61,172.69,73.73,174.18,73.73,174.18Z"/><path d="M66,150.42a48.34,48.34,0,0,0-1-18.52,35.67,35.67,0,0,0-10-17.11,57.7,57.7,0,0,0,1.39,20C59,146.13,66,150.42,66,150.42Z"/><path d="M160.05,209.45s7-5.37,19.55-6.85a33.85,33.85,0,0,1,21.75,5.16,82.67,82.67,0,0,1-21.15,4.74C167.43,213.79,160.05,209.45,160.05,209.45Z"/><path d="M179.61,198.42s6.28-6.47,18-10.93a42.88,42.88,0,0,1,23-1.7A63.88,63.88,0,0,1,201,197.36C188.51,202.11,179.61,198.42,179.61,198.42Z"/><path d="M198.28,183.09s3.66-8.94,13.39-17.92a44.08,44.08,0,0,1,21.91-10.54,67.37,67.37,0,0,1-14.77,19.19C208.45,183.39,198.28,183.09,198.28,183.09Z"/><path d="M201.94,165.94s1.21-9.61,8.25-20.83a43.67,43.67,0,0,1,18.35-15.84,67.84,67.84,0,0,1-9.25,22.43C211.79,163.64,201.94,165.94,201.94,165.94Z"/><path d="M201.48,143s.33-9.85,6.24-21.83a43.7,43.7,0,0,1,16.59-17.72A70.66,70.66,0,0,1,217.22,127C210.93,139.75,201.48,143,201.48,143Z"/><path d="M173.57,191.9a46,46,0,0,1,10.81-14.73,36,36,0,0,1,17.82-8.76,55.15,55.15,0,0,1-11.92,15.78C181.88,192.07,173.57,191.9,173.57,191.9Z"/><path d="M153.7,202.81A36.63,36.63,0,0,1,165.14,196a28.54,28.54,0,0,1,14.42-1.48,43.93,43.93,0,0,1-12.5,7.24C159.18,204.81,153.7,202.81,153.7,202.81Z"/><path d="M134.4,206.73a27.52,27.52,0,0,1,10.5-1.53,21.61,21.61,0,0,1,11,3.64,32.94,32.94,0,0,1-11.41,1.5C137.75,210.11,134.4,206.73,134.4,206.73Z"/><path d="M182.27,174.18a46.31,46.31,0,0,1,7.55-16.67,35.69,35.69,0,0,1,15.59-12.21A55.59,55.59,0,0,1,197,163.24C190.39,172.69,182.27,174.18,182.27,174.18Z"/><path d="M190,150.42a48.34,48.34,0,0,1,1-18.52,35.67,35.67,0,0,1,10-17.11,57.7,57.7,0,0,1-1.39,20C197,146.13,190,150.42,190,150.42Z"/><circle cx="128" cy="209.54" r="3.2"/><path d="M68.31,24.26H60.84V46.34H55V24.26H47.57V18.94H68.31Z"/><path d="M78.53,27v5.21h-2.9c-2.11,0-3.13,1-3.13,3.13v11H67V27h5.09v3.6a3.92,3.92,0,0,1,4-3.6Z"/><path d="M79.21,36.67c0-5.67,4-10.21,9.58-10.21a8.21,8.21,0,0,1,6.07,2.19V27H100V46.34H94.86V44a7.14,7.14,0,0,1-6.22,2.9C83.2,46.89,79.21,42.35,79.21,36.67Zm15.65,0a5.09,5.09,0,1,0-10.18,0,5.09,5.09,0,1,0,10.18,0Z"/><path d="M102.1,27H108l2.94,10.22c.35,1.17.54,2,.74,2.86.19-.9.39-1.69.74-2.86L115.33,27h5.87l-6.42,19.34h-6.26Z"/><path d="M140.88,38H126.52a4.6,4.6,0,0,0,4.62,4.39,4.19,4.19,0,0,0,4.34-2.94h5.25c-.94,4.74-4.43,7.48-9.59,7.48-6.07,0-10.06-4.47-10.06-10.22a9.93,9.93,0,0,1,10-10.21c6.1,0,9.78,3.71,9.78,10.64Zm-14.09-4.11h9a4.35,4.35,0,0,0-4.58-3.17A4.62,4.62,0,0,0,126.79,33.85Z"/><path d="M143.39,18.94h5.48v27.4h-5.48Z"/><path d="M171,38H156.61a4.61,4.61,0,0,0,4.62,4.39,4.19,4.19,0,0,0,4.34-2.94h5.25c-.94,4.74-4.42,7.48-9.59,7.48-6.07,0-10.06-4.47-10.06-10.22a9.93,9.93,0,0,1,10-10.21c6.11,0,9.78,3.71,9.78,10.64Zm-14.08-4.11h9a4.35,4.35,0,0,0-4.58-3.17A4.6,4.6,0,0,0,156.89,33.85Z"/><path d="M185,27v5.21h-2.89c-2.12,0-3.14,1-3.14,3.13v11h-5.47V27h5.08v3.6a3.92,3.92,0,0,1,4-3.6Z"/><path d="M186.5,40h5.55a2.06,2.06,0,0,0,2.16,2.23c1.29,0,2.07-.63,2.07-1.61s-.86-1.64-2.62-2.15l-2.54-.74c-2.55-.75-4.31-2.55-4.31-5.36,0-3.57,3.21-5.91,7.2-5.91,4.54,0,7.05,2.58,7.05,6.18h-5.17A1.85,1.85,0,0,0,194,30.8c-1.09,0-1.84.63-1.84,1.37,0,.9.71,1.33,2.23,1.76l2.82.78c2.59.71,4.39,2.47,4.39,5.37,0,3.64-2.86,6.81-7.44,6.81C189.9,46.89,186.5,44.26,186.5,40Z"/><path d="M203.7,27.83h.51a2.68,2.68,0,0,0,2.78-2.7,1.75,1.75,0,0,1-.78.15,3.35,3.35,0,0,1-3.41-3.44,3.43,3.43,0,0,1,3.45-3.45c2.46,0,3.83,2.27,3.83,5.25,0,4.77-2.31,7-5.56,7h-.82Z"/><path d="M68,67.84c0-8.41,6.27-14.25,13.82-14.25,7.36,0,12,4.07,13,10.57H88.92C88.06,61,85.48,59,81.8,59c-4.42,0-8,3.6-8,8.84s3.6,8.85,8,8.85c3.64,0,6.26-1.88,7.12-5.21h6c-1.17,6.58-6.34,10.61-13.15,10.61C74.13,82.09,68,76.26,68,67.84Z"/><path d="M97.38,54.14h5.48V64.83A6.86,6.86,0,0,1,109,61.66c3.83,0,6.53,2.7,6.53,7.12V81.54h-5.48V70.35a3.61,3.61,0,1,0-7.2,0V81.54H97.38Z"/><path d="M117.66,71.87c0-5.67,4.14-10.21,10.45-10.21a10.22,10.22,0,1,1-10.45,10.21Zm15.42,0a5,5,0,1,0-5,5.13A4.86,4.86,0,0,0,133.08,71.87Z"/><path d="M140,56.29a3.45,3.45,0,1,1,3.45,3.45A3.43,3.43,0,0,1,140,56.29Zm.71,5.91h5.48V81.54h-5.48Z"/><path d="M148.43,71.87a9.91,9.91,0,0,1,10.21-10.21c6.11,0,9.4,3.25,10,7.79h-5.71c-.55-1.61-1.92-2.71-4.27-2.71a5.15,5.15,0,0,0,0,10.26,4.09,4.09,0,0,0,4.27-2.7h5.71c-.9,4.73-4.07,7.79-10,7.79A9.91,9.91,0,0,1,148.43,71.87Z"/><path d="M189.47,73.16H175.11a4.6,4.6,0,0,0,4.61,4.39,4.2,4.2,0,0,0,4.35-2.94h5.24c-.94,4.74-4.42,7.48-9.59,7.48-6.06,0-10.05-4.46-10.05-10.22a9.93,9.93,0,0,1,10-10.21c6.1,0,9.78,3.71,9.78,10.64Zm-14.09-4.11h9a4.33,4.33,0,0,0-4.58-3.17A4.61,4.61,0,0,0,175.38,69.05Z"/><polygon points="187.8 55.68 191.06 55.68 191.06 56.38 189.81 56.38 189.81 60.06 189.06 60.06 189.06 56.38 187.8 56.38 187.8 55.68"/><path d="M193.8,59l-1.19-3.29h-.9v4.38h.72V57.62c0-.24,0-.44,0-.67l1.14,3.11h.55L195.2,57c0,.23,0,.43,0,.67v2.44h.73V55.68H195Z"/></g></g></svg>